<?xml version="1.0" encoding="utf-8"?>
<!-- Generator: Adobe Illustrator 24.1.2, SVG Export Plug-In . SVG Version: 6.00 Build 0)  -->
<svg version="1.1" id="Layer_1" xmlns="http://www.w3.org/2000/svg" xmlns:xlink="http://www.w3.org/1999/xlink" x="0px" y="0px"
	 viewBox="0 0 348.48 648" style="enable-background:new 0 0 348.48 648;" xml:space="preserve">
<style type="text/css">
	.st0{fill:#292829;}
	.st1{fill:#FFFFFF;}
	.st2{font-family:'KievitOT-Bold';}
	.st3{font-size:11.3609px;}
	.st4{font-family:'KievitOT';}
	.st5{fill:none;stroke:#FFFFFF;}
	.st6{font-size:18.3258px;}
	.st7{font-family:'KievitOTLight';}
	.st8{font-family:'KievitOTLight-Italic';}
	.st9{font-family:'KievitOT-Black';}
	.st10{font-size:32.6627px;}
	.st11{letter-spacing:-1;}
</style>
<rect class="st0" width="348.48" height="648"/>
<text transform="matrix(1 0 0 1 72.5122 209.2617)"><tspan x="0" y="0" class="st1 st2 st3">Depa</tspan><tspan x="25.2" y="0" class="st1 st2 st3">r</tspan><tspan x="29.05" y="0" class="st1 st2 st3">tment</tspan></text>
<text transform="matrix(1 0 0 1 95.0073 229.7568)"><tspan x="0" y="0" class="st1 st4 st3">Depa</tspan><tspan x="25.2" y="0" class="st1 st4 st3">r</tspan><tspan x="29.02" y="0" class="st1 st4 st3">tment 1</tspan></text>
<text transform="matrix(1 0 0 1 95.0073 245.7529)"><tspan x="0" y="0" class="st1 st4 st3">Depa</tspan><tspan x="25.2" y="0" class="st1 st4 st3">r</tspan><tspan x="29.02" y="0" class="st1 st4 st3">tment 2</tspan></text>
<text transform="matrix(1 0 0 1 95.0073 261.749)"><tspan x="0" y="0" class="st1 st4 st3">Depa</tspan><tspan x="25.2" y="0" class="st1 st4 st3">r</tspan><tspan x="29.02" y="0" class="st1 st4 st3">tment 3</tspan></text>
<text transform="matrix(1 0 0 1 95.0073 277.7451)"><tspan x="0" y="0" class="st1 st4 st3">Depa</tspan><tspan x="25.2" y="0" class="st1 st4 st3">r</tspan><tspan x="29.02" y="0" class="st1 st4 st3">tment 4</tspan></text>
<text transform="matrix(1 0 0 1 72.5122 300.4673)"><tspan x="0" y="0" class="st1 st2 st3">R</tspan><tspan x="5.87" y="0" class="st1 st2 st3">ole</tspan></text>
<text transform="matrix(1 0 0 1 99.5171 316.4634)"><tspan x="0" y="0" class="st1 st4 st3">E</tspan><tspan x="5.59" y="0" class="st1 st4 st3">x</tspan><tspan x="10.69" y="0" class="st1 st4 st3">ecuti</tspan><tspan x="34.15" y="0" class="st1 st4 st3">v</tspan><tspan x="39.57" y="0" class="st1 st4 st3">e </tspan><tspan x="47.67" y="0" class="st1 st4 st3">L</tspan><tspan x="52.87" y="0" class="st1 st4 st3">eadership</tspan></text>
<text transform="matrix(1 0 0 1 99.5171 332.459)"><tspan x="0" y="0" class="st1 st4 st3">P</tspan><tspan x="5.94" y="0" class="st1 st4 st3">a</tspan><tspan x="11.42" y="0" class="st1 st4 st3">r</tspan><tspan x="15.25" y="0" class="st1 st4 st3">tne</tspan><tspan x="31" y="0" class="st1 st4 st3">r</tspan><tspan x="34.16" y="0" class="st1 st4 st3">/</tspan><tspan x="38.16" y="0" class="st1 st4 st3">V</tspan><tspan x="44.4" y="0" class="st1 st4 st3">ice </tspan><tspan x="60.25" y="0" class="st1 st4 st3">Pr</tspan><tspan x="69.91" y="0" class="st1 st4 st3">esident</tspan></text>
<text transform="matrix(1 0 0 1 99.5171 348.4561)"><tspan x="0" y="0" class="st1 st4 st3">D</tspan><tspan x="7.46" y="0" class="st1 st4 st3">i</tspan><tspan x="10.12" y="0" class="st1 st4 st3">r</tspan><tspan x="13.79" y="0" class="st1 st4 st3">e</tspan><tspan x="19.48" y="0" class="st1 st4 st3">c</tspan><tspan x="24.63" y="0" class="st1 st4 st3">tor</tspan></text>
<text transform="matrix(1 0 0 1 99.5171 364.4521)"><tspan x="0" y="0" class="st1 st4 st3">Man</tspan><tspan x="20.92" y="0" class="st1 st4 st3">a</tspan><tspan x="26.35" y="0" class="st1 st4 st3">ger</tspan></text>
<text transform="matrix(1 0 0 1 99.5171 380.4482)"><tspan x="0" y="0" class="st1 st4 st3">P</tspan><tspan x="6" y="0" class="st1 st4 st3">r</tspan><tspan x="9.71" y="0" class="st1 st4 st3">o</tspan><tspan x="15.91" y="0" class="st1 st4 st3">f</tspan><tspan x="18.95" y="0" class="st1 st4 st3">essiona</tspan><tspan x="54.32" y="0" class="st1 st4 st3">/</tspan><tspan x="58.43" y="0" class="st1 st4 st3">T</tspan><tspan x="63.28" y="0" class="st1 st4 st3">echni</tspan><tspan x="89.33" y="0" class="st1 st4 st3">c</tspan><tspan x="94.48" y="0" class="st1 st4 st3">al S</tspan><tspan x="110.64" y="0" class="st1 st4 st3">t</tspan><tspan x="114.52" y="0" class="st1 st4 st3">aﬀ</tspan></text>
<text transform="matrix(1 0 0 1 99.5171 396.4443)"><tspan x="0" y="0" class="st1 st4 st3">Admistr</tspan><tspan x="37.47" y="0" class="st1 st4 st3">a</tspan><tspan x="42.89" y="0" class="st1 st4 st3">ti</tspan><tspan x="49.31" y="0" class="st1 st4 st3">v</tspan><tspan x="54.72" y="0" class="st1 st4 st3">e or Suppo</tspan><tspan x="106.21" y="0" class="st1 st4 st3">r</tspan><tspan x="110.03" y="0" class="st1 st4 st3">t S</tspan><tspan x="121.8" y="0" class="st1 st4 st3">t</tspan><tspan x="125.67" y="0" class="st1 st4 st3">aﬀ</tspan></text>
<text transform="matrix(1 0 0 1 72.5122 418.4385)"><tspan x="0" y="0" class="st1 st2 st3">T</tspan><tspan x="4.79" y="0" class="st1 st2 st3">enu</tspan><tspan x="23.05" y="0" class="st1 st2 st3">r</tspan><tspan x="26.65" y="0" class="st1 st2 st3">e</tspan></text>
<text transform="matrix(1 0 0 1 99.5171 434.4346)"><tspan x="0" y="0" class="st1 st4 st3">L</tspan><tspan x="5.2" y="0" class="st1 st4 st3">ess than 1 </tspan><tspan x="54.79" y="0" class="st1 st4 st3">y</tspan><tspan x="60.1" y="0" class="st1 st4 st3">ear</tspan></text>
<text transform="matrix(1 0 0 1 99.5171 450.4307)"><tspan x="0" y="0" class="st1 st4 st3">1 to 2 </tspan><tspan x="28.88" y="0" class="st1 st4 st3">y</tspan><tspan x="34.17" y="0" class="st1 st4 st3">ears</tspan></text>
<text transform="matrix(1 0 0 1 99.5171 466.4268)"><tspan x="0" y="0" class="st1 st4 st3">2 to 3 </tspan><tspan x="28.88" y="0" class="st1 st4 st3">y</tspan><tspan x="34.17" y="0" class="st1 st4 st3">ears</tspan></text>
<text transform="matrix(1 0 0 1 99.5171 482.4238)"><tspan x="0" y="0" class="st1 st4 st3">3 to 5 </tspan><tspan x="28.88" y="0" class="st1 st4 st3">y</tspan><tspan x="34.17" y="0" class="st1 st4 st3">ears</tspan></text>
<text transform="matrix(1 0 0 1 99.5171 498.4199)"><tspan x="0" y="0" class="st1 st4 st3">5 to 10 </tspan><tspan x="34.71" y="0" class="st1 st4 st3">y</tspan><tspan x="40" y="0" class="st1 st4 st3">ears</tspan></text>
<text transform="matrix(1 0 0 1 99.5171 514.416)"><tspan x="0" y="0" class="st1 st4 st3">Mo</tspan><tspan x="15.37" y="0" class="st1 st4 st3">r</tspan><tspan x="19.04" y="0" class="st1 st4 st3">e than 10 </tspan><tspan x="65.46" y="0" class="st1 st4 st3">y</tspan><tspan x="70.77" y="0" class="st1 st4 st3">ears</tspan></text>
<rect x="77.87" y="220.48" class="st5" width="11.4" height="11.4"/>
<rect x="77.87" y="309.62" class="st5" width="11.4" height="11.4"/>
<rect x="77.87" y="427.46" class="st5" width="11.4" height="11.4"/>
<rect x="77.87" y="236.88" class="st5" width="11.4" height="11.4"/>
<rect x="77.87" y="325.06" class="st5" width="11.4" height="11.4"/>
<rect x="77.87" y="442.91" class="st5" width="11.4" height="11.4"/>
<rect x="77.87" y="253.28" class="st5" width="11.4" height="11.4"/>
<rect x="77.87" y="340.5" class="st5" width="11.4" height="11.4"/>
<rect x="77.87" y="458.35" class="st5" width="11.4" height="11.4"/>
<rect x="77.87" y="371.38" class="st5" width="11.4" height="11.4"/>
<rect x="77.87" y="489.23" class="st5" width="11.4" height="11.4"/>
<rect x="77.87" y="386.83" class="st5" width="11.4" height="11.4"/>
<rect x="77.87" y="504.67" class="st5" width="11.4" height="11.4"/>
<rect x="77.87" y="268.68" class="st5" width="11.4" height="11.4"/>
<rect x="77.87" y="355.94" class="st5" width="11.4" height="11.4"/>
<rect x="77.87" y="473.79" class="st5" width="11.4" height="11.4"/>
<text transform="matrix(1 0 0 1 71.9995 187.9277)"><tspan x="0" y="0" class="st1 st2 st6">U</tspan><tspan x="11.62" y="0" class="st1 st2 st6">s</tspan><tspan x="18.93" y="0" class="st1 st2 st6">er </tspan><tspan x="37.99" y="0" class="st1 st2 st6">F</tspan><tspan x="46.64" y="0" class="st1 st2 st6">il</tspan><tspan x="55.25" y="0" class="st1 st2 st6">t</tspan><tspan x="61.24" y="0" class="st1 st2 st6">er</tspan></text>
<text transform="matrix(1 0 0 1 71.9995 30.7285)"><tspan x="0" y="0" class="st1 st2 st6">R</tspan><tspan x="9.46" y="0" class="st1 st2 st6">espon</tspan><tspan x="56.55" y="0" class="st1 st2 st6">s</tspan><tspan x="63.85" y="0" class="st1 st2 st6">e </tspan><tspan x="76.91" y="0" class="st1 st2 st6">F</tspan><tspan x="85.54" y="0" class="st1 st2 st6">il</tspan><tspan x="94.16" y="0" class="st1 st2 st6">t</tspan><tspan x="100.13" y="0" class="st1 st2 st6">er</tspan></text>
<text transform="matrix(1 0 0 1 153.5317 550.4121)" class="st1 st7 st6">Clear</text>
<rect x="72.5" y="533.71" class="st5" width="200.6" height="20.03"/>
<line class="st5" x1="76.32" y1="72" x2="325.23" y2="72"/>
<line class="st5" x1="76.32" y1="124.06" x2="325.23" y2="124.06"/>
<text transform="matrix(1 0 0 1 91.311 140.2524)"><tspan x="0" y="0" class="st1 st8 st3">15th pe</tspan><tspan x="36.29" y="0" class="st1 st8 st3">r</tspan><tspan x="39.9" y="0" class="st1 st8 st3">c</tspan><tspan x="44.88" y="0" class="st1 st8 st3">entile</tspan></text>
<text transform="matrix(1 0 0 1 91.311 87.2085)"><tspan x="0" y="0" class="st1 st8 st3">15th pe</tspan><tspan x="36.29" y="0" class="st1 st8 st3">r</tspan><tspan x="39.9" y="0" class="st1 st8 st3">c</tspan><tspan x="44.88" y="0" class="st1 st8 st3">entile</tspan></text>
<text transform="matrix(1 0 0 1 244.4673 140.2524)"><tspan x="0" y="0" class="st1 st8 st3">85th pe</tspan><tspan x="36.29" y="0" class="st1 st8 st3">r</tspan><tspan x="39.9" y="0" class="st1 st8 st3">c</tspan><tspan x="44.88" y="0" class="st1 st8 st3">entile</tspan></text>
<text transform="matrix(1 0 0 1 244.4673 87.2085)"><tspan x="0" y="0" class="st1 st8 st3">85th pe</tspan><tspan x="36.29" y="0" class="st1 st8 st3">r</tspan><tspan x="39.9" y="0" class="st1 st8 st3">c</tspan><tspan x="44.88" y="0" class="st1 st8 st3">entile</tspan></text>
<text transform="matrix(1 0 0 1 76.3257 59.3516)"><tspan x="0" y="0" class="st1 st2 st3">C</tspan><tspan x="6.51" y="0" class="st1 st2 st3">ur</tspan><tspan x="16.48" y="0" class="st1 st2 st3">r</tspan><tspan x="20.09" y="0" class="st1 st2 st3">ent </tspan><tspan x="38.25" y="0" class="st1 st2 st3">E</tspan><tspan x="43.73" y="0" class="st1 st2 st3">x</tspan><tspan x="48.93" y="0" class="st1 st2 st3">perience</tspan></text>
<text transform="matrix(1 0 0 1 76.3257 112.6909)"><tspan x="0" y="0" class="st1 st2 st3">What Mat</tspan><tspan x="45.93" y="0" class="st1 st2 st3">t</tspan><tspan x="49.65" y="0" class="st1 st2 st3">ers </tspan><tspan x="65.96" y="0" class="st1 st2 st3">M</tspan><tspan x="75.04" y="0" class="st1 st2 st3">ost</tspan></text>
<path class="st1" d="M77.12,571.55h6.6l2.03,8.89c0.42,1.83,0.78,4.15,0.78,4.15h0.07c0,0,0.46-2.58,0.88-4.41l1.99-8.62h6.04
	l1.96,8.62c0.42,1.86,0.85,4.41,0.85,4.41h0.1c0,0,0.36-2.45,0.78-4.21l2.09-8.82h5.88l-5.91,21.76h-5.75l-2.32-10
	c-0.42-1.8-0.82-3.95-0.82-3.95h-0.07c0,0-0.42,2.19-0.91,3.95l-2.71,10h-5.75L77.12,571.55z M110.86,571.55h13.66v5.06H117v3.27
	h6.63v4.7H117v3.66h7.74v5.06h-13.88V571.55z M130,571.55h6.27v16.82h7.74v4.93H130V571.55z M148.85,571.55h6.27v16.82h7.74v4.93
	h-14.02V571.55z M165.64,579.78h8.17v4.64h-8.17V579.78z M178.53,571.55h8.46c4.02,0,7.84,1.18,7.84,5.42c0,3.04-1.5,4.54-3.85,5.13
	v0.07c2.52,0.36,4.7,1.96,4.7,5.16c0,4.41-3.76,5.98-8.79,5.98h-8.36V571.55z M186.15,580.21c1.83,0,2.61-0.65,2.61-2.06
	c0-1.34-0.82-1.96-2.48-1.96h-1.6v4.02H186.15z M186.6,588.67c1.67,0,2.81-0.56,2.81-2.12c0-1.54-0.95-2.12-2.61-2.12h-2.12v4.25
	H186.6z M199.93,571.55h13.66v5.06h-7.51v3.27h6.63v4.7h-6.63v3.66h7.74v5.06h-13.88V571.55z M219.13,571.55h6.27v21.76h-6.27
	V571.55z M231.58,571.55h6.31l5.95,8.53c1.54,2.19,2.45,3.89,2.52,4.02h0.07c-0.03-0.16-0.13-2.06-0.13-3.79v-8.76h5.62v21.76h-5.68
	l-6.66-9.38c-1.6-2.22-2.25-3.4-2.38-3.63h-0.07c0,0.2,0.1,1.67,0.1,3.3v9.7h-5.62V571.55z M256.4,582.43
	c0-5.95,4.54-11.27,12.54-11.27c3.56,0,5.75,0.75,7.38,1.86l-2.61,4.67c-1.08-0.69-2.65-1.4-4.87-1.4c-3.82,0-5.85,2.19-5.85,5.95
	c0,3.79,1.57,6.47,5.33,6.47c1.24,0,2.16-0.26,2.61-0.46v-2.91h-3.5v-4.7h9.41v11.11c-1.5,0.78-3.76,1.96-8.46,1.96
	C260.45,593.7,256.4,588.37,256.4,582.43z"/>
<text transform="matrix(1 0 0 1 278.644 593.3066)" class="st1 st9 st10"> </text>
<text transform="matrix(1 0 0 1 59.0894 624.6494)"><tspan x="0" y="0" class="st0 st9 st10">GA</tspan><tspan x="43.05" y="0" class="st0 st9 st10">P </tspan><tspan x="68.92" y="0" class="st0 st9 st10">ANA</tspan><tspan x="133.33" y="0" class="st0 st9 st10 st11">L</tspan><tspan x="146.98" y="0" class="st0 st9 st10">Y</tspan><tspan x="165.14" y="0" class="st0 st9 st10">S</tspan><tspan x="182.22" y="0" class="st0 st9 st10">I</tspan><tspan x="190.98" y="0" class="st0 st9 st10">S</tspan></text>
</svg>
