<?xml version="1.0" encoding="utf-8"?>
<!-- Generator: Adobe Illustrator 24.1.2, SVG Export Plug-In . SVG Version: 6.00 Build 0)  -->
<svg version="1.1" id="Layer_1" xmlns="http://www.w3.org/2000/svg" xmlns:xlink="http://www.w3.org/1999/xlink" x="0px" y="0px"
	 viewBox="0 0 348.48 648" style="enable-background:new 0 0 348.48 648;" xml:space="preserve">
<style type="text/css">
	.st0{fill:#292829;}
	.st1{fill:#FFFFFF;}
	.st2{font-family:'KievitOT-Bold';}
	.st3{font-size:18.3258px;}
	.st4{font-size:11.3609px;}
	.st5{font-family:'KievitOT';}
	.st6{fill:none;stroke:#FFFFFF;}
	.st7{clip-path:url(#SVGID_2_);fill:none;stroke:#51DCBB;stroke-width:28.209;}
	.st8{font-family:'KievitOT-Black';}
	.st9{font-size:32.6627px;}
	.st10{letter-spacing:-1;}
</style>
<rect class="st0" width="348.48" height="648"/>
<text transform="matrix(1 0 0 1 47.8804 160.8115)"><tspan x="0" y="0" class="st1 st2 st3">U</tspan><tspan x="11.62" y="0" class="st1 st2 st3">s</tspan><tspan x="18.93" y="0" class="st1 st2 st3">er </tspan><tspan x="37.99" y="0" class="st1 st2 st3">F</tspan><tspan x="46.64" y="0" class="st1 st2 st3">il</tspan><tspan x="55.25" y="0" class="st1 st2 st3">t</tspan><tspan x="61.24" y="0" class="st1 st2 st3">er</tspan></text>
<text transform="matrix(1 0 0 1 47.8804 193.8022)"><tspan x="0" y="0" class="st1 st2 st4">Depa</tspan><tspan x="25.2" y="0" class="st1 st2 st4">r</tspan><tspan x="29.05" y="0" class="st1 st2 st4">tment</tspan></text>
<text transform="matrix(1 0 0 1 70.3745 214.2974)"><tspan x="0" y="0" class="st1 st5 st4">Depa</tspan><tspan x="25.2" y="0" class="st1 st5 st4">r</tspan><tspan x="29.02" y="0" class="st1 st5 st4">tment 1</tspan></text>
<text transform="matrix(1 0 0 1 70.3745 230.2935)"><tspan x="0" y="0" class="st1 st5 st4">Depa</tspan><tspan x="25.2" y="0" class="st1 st5 st4">r</tspan><tspan x="29.02" y="0" class="st1 st5 st4">tment 2</tspan></text>
<text transform="matrix(1 0 0 1 70.3745 246.2896)"><tspan x="0" y="0" class="st1 st5 st4">Depa</tspan><tspan x="25.2" y="0" class="st1 st5 st4">r</tspan><tspan x="29.02" y="0" class="st1 st5 st4">tment 3</tspan></text>
<text transform="matrix(1 0 0 1 70.3745 262.2861)"><tspan x="0" y="0" class="st1 st5 st4">Depa</tspan><tspan x="25.2" y="0" class="st1 st5 st4">r</tspan><tspan x="29.02" y="0" class="st1 st5 st4">tment 4</tspan></text>
<text transform="matrix(1 0 0 1 47.8804 285.0078)"><tspan x="0" y="0" class="st1 st2 st4">R</tspan><tspan x="5.87" y="0" class="st1 st2 st4">ole</tspan></text>
<text transform="matrix(1 0 0 1 74.8853 301.0039)"><tspan x="0" y="0" class="st1 st5 st4">E</tspan><tspan x="5.59" y="0" class="st1 st5 st4">x</tspan><tspan x="10.69" y="0" class="st1 st5 st4">ecuti</tspan><tspan x="34.15" y="0" class="st1 st5 st4">v</tspan><tspan x="39.57" y="0" class="st1 st5 st4">e </tspan><tspan x="47.67" y="0" class="st1 st5 st4">L</tspan><tspan x="52.87" y="0" class="st1 st5 st4">eadership</tspan></text>
<text transform="matrix(1 0 0 1 74.8853 317)"><tspan x="0" y="0" class="st1 st5 st4">P</tspan><tspan x="5.94" y="0" class="st1 st5 st4">a</tspan><tspan x="11.42" y="0" class="st1 st5 st4">r</tspan><tspan x="15.25" y="0" class="st1 st5 st4">tne</tspan><tspan x="31" y="0" class="st1 st5 st4">r</tspan><tspan x="34.16" y="0" class="st1 st5 st4">/</tspan><tspan x="38.16" y="0" class="st1 st5 st4">V</tspan><tspan x="44.4" y="0" class="st1 st5 st4">ice </tspan><tspan x="60.25" y="0" class="st1 st5 st4">Pr</tspan><tspan x="69.91" y="0" class="st1 st5 st4">esident</tspan></text>
<text transform="matrix(1 0 0 1 74.8853 332.9961)"><tspan x="0" y="0" class="st1 st5 st4">D</tspan><tspan x="7.46" y="0" class="st1 st5 st4">i</tspan><tspan x="10.12" y="0" class="st1 st5 st4">r</tspan><tspan x="13.79" y="0" class="st1 st5 st4">e</tspan><tspan x="19.48" y="0" class="st1 st5 st4">c</tspan><tspan x="24.63" y="0" class="st1 st5 st4">tor</tspan></text>
<text transform="matrix(1 0 0 1 74.8853 348.9922)"><tspan x="0" y="0" class="st1 st5 st4">Man</tspan><tspan x="20.92" y="0" class="st1 st5 st4">a</tspan><tspan x="26.35" y="0" class="st1 st5 st4">ger</tspan></text>
<text transform="matrix(1 0 0 1 74.8853 364.9883)"><tspan x="0" y="0" class="st1 st5 st4">P</tspan><tspan x="6" y="0" class="st1 st5 st4">r</tspan><tspan x="9.71" y="0" class="st1 st5 st4">o</tspan><tspan x="15.91" y="0" class="st1 st5 st4">f</tspan><tspan x="18.95" y="0" class="st1 st5 st4">essiona</tspan><tspan x="54.32" y="0" class="st1 st5 st4">/</tspan><tspan x="58.43" y="0" class="st1 st5 st4">T</tspan><tspan x="63.28" y="0" class="st1 st5 st4">echni</tspan><tspan x="89.33" y="0" class="st1 st5 st4">c</tspan><tspan x="94.48" y="0" class="st1 st5 st4">al S</tspan><tspan x="110.64" y="0" class="st1 st5 st4">t</tspan><tspan x="114.52" y="0" class="st1 st5 st4">aﬀ</tspan></text>
<text transform="matrix(1 0 0 1 74.8853 380.9844)"><tspan x="0" y="0" class="st1 st5 st4">Admistr</tspan><tspan x="37.47" y="0" class="st1 st5 st4">a</tspan><tspan x="42.89" y="0" class="st1 st5 st4">ti</tspan><tspan x="49.31" y="0" class="st1 st5 st4">v</tspan><tspan x="54.72" y="0" class="st1 st5 st4">e or Suppo</tspan><tspan x="106.21" y="0" class="st1 st5 st4">r</tspan><tspan x="110.03" y="0" class="st1 st5 st4">t S</tspan><tspan x="121.8" y="0" class="st1 st5 st4">t</tspan><tspan x="125.67" y="0" class="st1 st5 st4">aﬀ</tspan></text>
<text transform="matrix(1 0 0 1 47.8804 402.9795)"><tspan x="0" y="0" class="st1 st2 st4">T</tspan><tspan x="4.79" y="0" class="st1 st2 st4">enu</tspan><tspan x="23.05" y="0" class="st1 st2 st4">r</tspan><tspan x="26.65" y="0" class="st1 st2 st4">e</tspan></text>
<text transform="matrix(1 0 0 1 74.8853 418.9756)"><tspan x="0" y="0" class="st1 st5 st4">L</tspan><tspan x="5.2" y="0" class="st1 st5 st4">ess than 1 </tspan><tspan x="54.79" y="0" class="st1 st5 st4">y</tspan><tspan x="60.1" y="0" class="st1 st5 st4">ear</tspan></text>
<text transform="matrix(1 0 0 1 74.8853 434.9717)"><tspan x="0" y="0" class="st1 st5 st4">1 to 2 </tspan><tspan x="28.88" y="0" class="st1 st5 st4">y</tspan><tspan x="34.17" y="0" class="st1 st5 st4">ears</tspan></text>
<text transform="matrix(1 0 0 1 74.8853 450.9678)"><tspan x="0" y="0" class="st1 st5 st4">2 to 3 </tspan><tspan x="28.88" y="0" class="st1 st5 st4">y</tspan><tspan x="34.17" y="0" class="st1 st5 st4">ears</tspan></text>
<text transform="matrix(1 0 0 1 74.8853 466.9639)"><tspan x="0" y="0" class="st1 st5 st4">3 to 5 </tspan><tspan x="28.88" y="0" class="st1 st5 st4">y</tspan><tspan x="34.17" y="0" class="st1 st5 st4">ears</tspan></text>
<text transform="matrix(1 0 0 1 74.8853 482.96)"><tspan x="0" y="0" class="st1 st5 st4">5 to 10 </tspan><tspan x="34.71" y="0" class="st1 st5 st4">y</tspan><tspan x="40" y="0" class="st1 st5 st4">ears</tspan></text>
<text transform="matrix(1 0 0 1 74.8853 498.9561)"><tspan x="0" y="0" class="st1 st5 st4">Mo</tspan><tspan x="15.37" y="0" class="st1 st5 st4">r</tspan><tspan x="19.04" y="0" class="st1 st5 st4">e than 10 </tspan><tspan x="65.46" y="0" class="st1 st5 st4">y</tspan><tspan x="70.77" y="0" class="st1 st5 st4">ears</tspan></text>
<rect x="53.24" y="205.02" class="st6" width="11.4" height="11.4"/>
<rect x="53.24" y="294.16" class="st6" width="11.4" height="11.4"/>
<rect x="53.24" y="412.01" class="st6" width="11.4" height="11.4"/>
<rect x="53.24" y="221.42" class="st6" width="11.4" height="11.4"/>
<rect x="53.24" y="309.6" class="st6" width="11.4" height="11.4"/>
<rect x="53.24" y="427.45" class="st6" width="11.4" height="11.4"/>
<rect x="53.24" y="237.82" class="st6" width="11.4" height="11.4"/>
<rect x="53.24" y="325.04" class="st6" width="11.4" height="11.4"/>
<rect x="53.24" y="442.89" class="st6" width="11.4" height="11.4"/>
<rect x="53.24" y="355.93" class="st6" width="11.4" height="11.4"/>
<rect x="53.24" y="473.77" class="st6" width="11.4" height="11.4"/>
<rect x="53.24" y="371.37" class="st6" width="11.4" height="11.4"/>
<rect x="53.24" y="489.22" class="st6" width="11.4" height="11.4"/>
<rect x="53.24" y="253.22" class="st6" width="11.4" height="11.4"/>
<rect x="53.24" y="340.48" class="st6" width="11.4" height="11.4"/>
<rect x="53.24" y="458.33" class="st6" width="11.4" height="11.4"/>
<g>
	<defs>
		<rect id="SVGID_1_" x="-803.52" width="1152" height="648"/>
	</defs>
	<clipPath id="SVGID_2_">
		<use xlink:href="#SVGID_1_"  style="overflow:visible;"/>
	</clipPath>
	<path class="st7" d="M312.3,613.97c0,0-125.52-1.64-130.68-0.99c-10.64,1.33-51.97,2.77-62.28,1.69
		c-10.48-1.1-21.27-0.24-31.8-0.57c-5.75-0.18-11.57-0.02-17.29,0.56c-2.17,0.22-4.34,0.49-6.52,0.62
		c-0.55,0.03-1.14,0.29-1.64,0.07c-1.21-0.56-7.62-0.95-7.62-0.95"/>
</g>
<path class="st1" d="M77.12,571.55h6.6l2.03,8.89c0.42,1.83,0.78,4.15,0.78,4.15h0.07c0,0,0.46-2.58,0.88-4.41l1.99-8.62h6.04
	l1.96,8.62c0.42,1.86,0.85,4.41,0.85,4.41h0.1c0,0,0.36-2.45,0.78-4.21l2.09-8.82h5.88l-5.91,21.76h-5.75l-2.32-10
	c-0.42-1.8-0.82-3.95-0.82-3.95h-0.07c0,0-0.42,2.19-0.91,3.95l-2.71,10h-5.75L77.12,571.55z M110.86,571.55h13.66v5.06H117v3.27
	h6.63v4.7H117v3.66h7.74v5.06h-13.88V571.55z M130,571.55h6.27v16.82h7.74v4.93H130V571.55z M148.85,571.55h6.27v16.82h7.74v4.93
	h-14.02V571.55z M165.64,579.78h8.17v4.64h-8.17V579.78z M178.53,571.55h8.46c4.02,0,7.84,1.18,7.84,5.42c0,3.04-1.5,4.54-3.85,5.13
	v0.07c2.52,0.36,4.7,1.96,4.7,5.16c0,4.41-3.76,5.98-8.79,5.98h-8.36V571.55z M186.15,580.21c1.83,0,2.61-0.65,2.61-2.06
	c0-1.34-0.82-1.96-2.48-1.96h-1.6v4.02H186.15z M186.6,588.67c1.67,0,2.81-0.56,2.81-2.12c0-1.54-0.95-2.12-2.61-2.12h-2.12v4.25
	H186.6z M199.93,571.55h13.66v5.06h-7.51v3.27h6.63v4.7h-6.63v3.66h7.74v5.06h-13.88V571.55z M219.13,571.55h6.27v21.76h-6.27
	V571.55z M231.58,571.55h6.31l5.95,8.53c1.54,2.19,2.45,3.89,2.52,4.02h0.07c-0.03-0.16-0.13-2.06-0.13-3.79v-8.76h5.62v21.76h-5.68
	l-6.66-9.38c-1.6-2.22-2.25-3.4-2.38-3.63h-0.07c0,0.2,0.1,1.67,0.1,3.3v9.7h-5.62V571.55z M256.4,582.43
	c0-5.95,4.54-11.27,12.54-11.27c3.56,0,5.75,0.75,7.38,1.86l-2.61,4.67c-1.08-0.69-2.65-1.4-4.87-1.4c-3.82,0-5.85,2.19-5.85,5.95
	c0,3.79,1.57,6.47,5.33,6.47c1.24,0,2.16-0.26,2.61-0.46v-2.91h-3.5v-4.7h9.41v11.11c-1.5,0.78-3.76,1.96-8.46,1.96
	C260.45,593.7,256.4,588.37,256.4,582.43z"/>
<text transform="matrix(1 0 0 1 278.644 593.3066)" class="st1 st8 st9"> </text>
<text transform="matrix(1 0 0 1 59.0894 624.6494)"><tspan x="0" y="0" class="st0 st8 st9">GA</tspan><tspan x="43.05" y="0" class="st0 st8 st9">P </tspan><tspan x="68.92" y="0" class="st0 st8 st9">ANA</tspan><tspan x="133.33" y="0" class="st0 st8 st9 st10">L</tspan><tspan x="146.98" y="0" class="st0 st8 st9">Y</tspan><tspan x="165.14" y="0" class="st0 st8 st9">S</tspan><tspan x="182.22" y="0" class="st0 st8 st9">I</tspan><tspan x="190.98" y="0" class="st0 st8 st9">S</tspan></text>
</svg>
