<svg xmlns="http://www.w3.org/2000/svg" xmlns:xlink="http://www.w3.org/1999/xlink" viewBox="0 0 333 648.11"><defs><style>.cls-1,.cls-27,.cls-40,.cls-45{fill:none;}.cls-2,.cls-48{fill:#333132;}.cls-24,.cls-3,.cls-41,.cls-5{font-size:10.86px;}.cls-24,.cls-28,.cls-3,.cls-38,.cls-41,.cls-46,.cls-47,.cls-5{fill:#fff;}.cls-24,.cls-28,.cls-3{font-family:KievitOT-Bold, KievitOT;font-weight:700;}.cls-4{letter-spacing:0.01em;}.cls-5{font-family:KievitOT;}.cls-6{letter-spacing:0.01em;}.cls-7{letter-spacing:-0.02em;}.cls-8{letter-spacing:-0.01em;}.cls-9{letter-spacing:0em;}.cls-10{letter-spacing:-0.01em;}.cls-11{letter-spacing:-0.01em;}.cls-12{letter-spacing:0.01em;}.cls-13{letter-spacing:-0.05em;}.cls-14{letter-spacing:-0.01em;}.cls-15{letter-spacing:0em;}.cls-16{letter-spacing:0.01em;}.cls-17{letter-spacing:0em;}.cls-18{letter-spacing:-0.01em;}.cls-19{letter-spacing:-0.02em;}.cls-20{letter-spacing:0.02em;}.cls-21{letter-spacing:-0.07em;}.cls-22{letter-spacing:0em;}.cls-23{letter-spacing:0em;}.cls-24{letter-spacing:-0.08em;}.cls-25{letter-spacing:-0.01em;}.cls-26{letter-spacing:0em;}.cls-27,.cls-40{stroke:#fff;}.cls-28,.cls-38{font-size:17.51px;}.cls-29{letter-spacing:-0.01em;}.cls-30{letter-spacing:0em;}.cls-31{letter-spacing:-0.02em;}.cls-32{letter-spacing:-0.01em;}.cls-33{letter-spacing:-0.02em;}.cls-34{letter-spacing:0em;}.cls-35{letter-spacing:0em;}.cls-36{letter-spacing:-0.02em;}.cls-37{letter-spacing:0em;}.cls-38{font-family:KievitOTLight, KievitOT;}.cls-39{clip-path:url(#clip-path);}.cls-40{stroke-width:2px;}.cls-41{font-family:KievitOTLight-Italic, KievitOT;font-style:italic;}.cls-42{letter-spacing:-0.01em;}.cls-43{letter-spacing:-0.01em;}.cls-44{letter-spacing:-0.01em;}.cls-45{stroke:#64c4ae;stroke-width:28.21px;}.cls-47,.cls-48{font-size:31.21px;font-family:KievitOT-Black, KievitOT;font-weight:800;}.cls-49{letter-spacing:0.03em;}.cls-50{letter-spacing:0.02em;}.cls-51{letter-spacing:0.03em;}.cls-52{letter-spacing:0.03em;}.cls-53{letter-spacing:0.03em;}.cls-54{letter-spacing:-0.05em;}.cls-55{letter-spacing:0.01em;}.cls-56{letter-spacing:0.03em;}</style><clipPath id="clip-path" transform="translate(-819)"><rect class="cls-1" x="819" width="333" height="648.11"/></clipPath></defs><g id="Layer_1" data-name="Layer 1"><rect class="cls-2" width="333" height="648.11"/><rect class="cls-2" width="333" height="648.11"/><text class="cls-3" transform="translate(42.23 301.78)">Depa<tspan class="cls-4" x="24.82" y="0">r</tspan><tspan x="29.19" y="0">tment</tspan></text><text class="cls-5" transform="translate(63.73 321.36)">Depa<tspan class="cls-6" x="23.56" y="0">r</tspan><tspan x="27.4" y="0">tment 1</tspan></text><text class="cls-5" transform="translate(63.73 336.65)">Depa<tspan class="cls-6" x="23.56" y="0">r</tspan><tspan x="27.4" y="0">tment 2</tspan></text><text class="cls-5" transform="translate(63.73 351.94)">Depa<tspan class="cls-6" x="23.56" y="0">r</tspan><tspan x="27.4" y="0">tment 3</tspan></text><text class="cls-5" transform="translate(63.73 367.22)">Depa<tspan class="cls-6" x="23.56" y="0">r</tspan><tspan x="27.4" y="0">tment 4</tspan></text><text class="cls-3" transform="translate(42.23 388.93)"><tspan class="cls-7">R</tspan><tspan x="6.5" y="0">ole</tspan></text><text class="cls-5" transform="translate(68.04 404.22)">E<tspan class="cls-8" x="5.46" y="0">x</tspan><tspan x="10.32" y="0">ecuti</tspan><tspan class="cls-9" x="32.64" y="0">v</tspan><tspan x="37.62" y="0">e </tspan><tspan class="cls-10" x="45.38" y="0">L</tspan><tspan x="50.36" y="0">eadership</tspan></text><text class="cls-5" transform="translate(68.04 419.5)"><tspan class="cls-11">P</tspan><tspan x="5.79" y="0">a</tspan><tspan class="cls-12" x="10.91" y="0">r</tspan><tspan x="14.76" y="0">tne</tspan><tspan class="cls-13" x="29.62" y="0">r</tspan><tspan class="cls-6" x="32.83" y="0">/</tspan><tspan class="cls-14" x="37.29" y="0">V</tspan><tspan x="43.87" y="0">ice </tspan><tspan class="cls-9" x="59.12" y="0">Pr</tspan><tspan x="68.66" y="0">esident</tspan></text><text class="cls-5" transform="translate(68.04 434.79)"><tspan class="cls-11">D</tspan><tspan x="7.27" y="0">i</tspan><tspan class="cls-15" x="9.99" y="0">r</tspan><tspan x="13.69" y="0">e</tspan><tspan class="cls-16" x="19.01" y="0">c</tspan><tspan class="cls-17" x="23.84" y="0">tor</tspan></text><text class="cls-5" transform="translate(68.04 450.08)">Man<tspan class="cls-15" x="20.13" y="0">a</tspan><tspan x="25.21" y="0">ger</tspan></text><text class="cls-5" transform="translate(68.04 465.36)"><tspan class="cls-15">P</tspan><tspan x="5.84" y="0">r</tspan><tspan class="cls-18" x="9.59" y="0">o</tspan><tspan class="cls-19" x="15.26" y="0">f</tspan><tspan x="18.44" y="0">essiona</tspan><tspan class="cls-20" x="51.95" y="0">/</tspan><tspan class="cls-21" x="56.52" y="0">T</tspan><tspan x="61.16" y="0">echni</tspan><tspan class="cls-22" x="85.45" y="0">c</tspan><tspan x="90.28" y="0">al S</tspan><tspan class="cls-12" x="105.88" y="0">t</tspan><tspan x="109.77" y="0">aﬀ</tspan></text><text class="cls-5" transform="translate(68.04 480.65)">Admistr<tspan class="cls-23" x="35.76" y="0">a</tspan><tspan class="cls-17" x="40.83" y="0">ti</tspan><tspan class="cls-15" x="47.32" y="0">v</tspan><tspan x="52.29" y="0">e or Suppo</tspan><tspan class="cls-6" x="100.34" y="0">r</tspan><tspan class="cls-17" x="104.19" y="0">t S</tspan><tspan class="cls-12" x="115.82" y="0">t</tspan><tspan class="cls-17" x="119.71" y="0">aﬀ</tspan></text><text class="cls-24" transform="translate(42.23 501.66)">T<tspan class="cls-17" x="5.02" y="0">enu</tspan><tspan class="cls-25" x="22.74" y="0">r</tspan><tspan class="cls-17" x="26.86" y="0">e</tspan></text><text class="cls-5" transform="translate(68.04 516.95)"><tspan class="cls-10">L</tspan><tspan x="4.98" y="0">ess than 1 </tspan><tspan class="cls-18" x="52.56" y="0">y</tspan><tspan x="57.6" y="0">ear</tspan></text><text class="cls-5" transform="translate(68.04 532.24)">1 to 2 <tspan class="cls-9" x="28.24" y="0">y</tspan><tspan class="cls-26" x="33.28" y="0">ears</tspan></text><text class="cls-5" transform="translate(68.04 547.52)">2 to 3 <tspan class="cls-9" x="28.24" y="0">y</tspan><tspan class="cls-26" x="33.28" y="0">ears</tspan></text><text class="cls-5" transform="translate(68.04 562.81)">3 to 5 <tspan class="cls-9" x="28.24" y="0">y</tspan><tspan class="cls-26" x="33.28" y="0">ears</tspan></text><text class="cls-5" transform="translate(68.04 578.09)">5 to 10 <tspan class="cls-15" x="33.94" y="0">y</tspan><tspan x="38.98" y="0">ears</tspan></text><text class="cls-5" transform="translate(68.04 593.38)">Mo<tspan class="cls-15" x="14.98" y="0">r</tspan><tspan x="18.68" y="0">e than 10 </tspan><tspan class="cls-18" x="63.11" y="0">y</tspan><tspan x="68.14" y="0">ears</tspan></text><rect class="cls-27" x="47.35" y="312.5" width="10.89" height="10.89"/><rect class="cls-27" x="47.35" y="397.68" width="10.89" height="10.89"/><rect class="cls-27" x="47.35" y="510.29" width="10.89" height="10.89"/><rect class="cls-27" x="47.35" y="328.17" width="10.89" height="10.89"/><rect class="cls-27" x="47.35" y="412.43" width="10.89" height="10.89"/><rect class="cls-27" x="47.35" y="525.04" width="10.89" height="10.89"/><rect class="cls-27" x="47.35" y="343.84" width="10.89" height="10.89"/><rect class="cls-27" x="47.35" y="427.19" width="10.89" height="10.89"/><rect class="cls-27" x="47.35" y="539.8" width="10.89" height="10.89"/><rect class="cls-27" x="47.35" y="456.7" width="10.89" height="10.89"/><rect class="cls-27" x="47.35" y="569.31" width="10.89" height="10.89"/><rect class="cls-27" x="47.35" y="471.46" width="10.89" height="10.89"/><rect class="cls-27" x="47.35" y="584.07" width="10.89" height="10.89"/><rect class="cls-27" x="47.35" y="358.55" width="10.89" height="10.89"/><rect class="cls-27" x="47.35" y="441.94" width="10.89" height="10.89"/><rect class="cls-27" x="47.35" y="554.56" width="10.89" height="10.89"/><text class="cls-28" transform="translate(41.74 284.26)"><tspan class="cls-29">U</tspan><tspan class="cls-30" x="12.29" y="0">s</tspan><tspan x="19.7" y="0">er </tspan><tspan class="cls-31" x="39.02" y="0">F</tspan><tspan x="47.68" y="0">il</tspan><tspan class="cls-32" x="57.4" y="0">t</tspan><tspan x="64.09" y="0">er</tspan></text><text class="cls-28" transform="translate(41.74 138.28)"><tspan class="cls-33">R</tspan><tspan x="10.47" y="0">espon</tspan><tspan class="cls-34" x="56.09" y="0">s</tspan><tspan class="cls-35" x="63.48" y="0">e </tspan><tspan class="cls-36" x="75.96" y="0">F</tspan><tspan x="84.62" y="0">il</tspan><tspan class="cls-37" x="94.33" y="0">t</tspan><tspan x="101.04" y="0">er</tspan></text><text class="cls-38" transform="translate(85.1 630.1)">Clear</text><text class="cls-38" transform="translate(195.41 630.1)">Cap<tspan class="cls-37" x="27.7" y="0">t</tspan><tspan x="33.41" y="0">u</tspan><tspan class="cls-37" x="42.5" y="0">r</tspan><tspan x="48.16" y="0">e</tspan></text><rect class="cls-27" x="166.98" y="614.16" width="117.97" height="19.14"/><rect class="cls-27" x="45.13" y="614.16" width="117.97" height="19.14"/><line class="cls-27" x1="45.87" y1="172.96" x2="283.73" y2="172.96"/><line class="cls-27" x1="45.87" y1="222.7" x2="283.73" y2="222.7"/><g class="cls-39"><path class="cls-2" d="M905.89,178a4.56,4.56,0,1,0-4.55-4.56,4.56,4.56,0,0,0,4.55,4.56" transform="translate(-819)"/><circle class="cls-40" cx="905.89" cy="173.43" r="4.55" transform="translate(-174.96 1057.82) rotate(-84.35)"/><path class="cls-2" d="M905.89,227.26a4.56,4.56,0,1,0-4.55-4.56,4.56,4.56,0,0,0,4.55,4.56" transform="translate(-819)"/><circle class="cls-40" cx="905.89" cy="222.7" r="4.55" transform="translate(-223.99 1102.24) rotate(-84.35)"/><path class="cls-2" d="M1055.88,178a4.56,4.56,0,1,0-4.56-4.56,4.56,4.56,0,0,0,4.56,4.56" transform="translate(-819)"/><circle class="cls-40" cx="236.88" cy="173.43" r="4.55"/><path class="cls-2" d="M1055.88,227.26a4.56,4.56,0,1,0-4.56-4.56,4.56,4.56,0,0,0,4.56,4.56" transform="translate(-819)"/><circle class="cls-40" cx="236.88" cy="222.7" r="4.55"/></g><text class="cls-41" transform="translate(60.2 238.18)">15th pe<tspan class="cls-42" x="32.24" y="0">rc</tspan><tspan x="40.03" y="0">entile</tspan></text><text class="cls-41" transform="translate(60.2 187.49)">15th pe<tspan class="cls-42" x="32.24" y="0">rc</tspan><tspan x="40.03" y="0">entile</tspan></text><text class="cls-41" transform="translate(206.55 238.18)">85th pe<tspan class="cls-42" x="32.24" y="0">rc</tspan><tspan x="40.03" y="0">entile</tspan></text><text class="cls-41" transform="translate(206.55 187.49)">85th pe<tspan class="cls-42" x="32.24" y="0">rc</tspan><tspan x="40.03" y="0">entile</tspan></text><text class="cls-3" transform="translate(45.88 160.87)"><tspan class="cls-43">C</tspan><tspan x="6.63" y="0">ur</tspan><tspan class="cls-44" x="16.91" y="0">r</tspan><tspan x="21.03" y="0">ent </tspan><tspan class="cls-14" x="39.02" y="0">E</tspan><tspan class="cls-18" x="44.66" y="0">x</tspan><tspan x="50.16" y="0">perience</tspan></text><text class="cls-3" transform="translate(45.88 211.84)">What Mat<tspan class="cls-23" x="46.94" y="0">t</tspan><tspan class="cls-17" x="51.09" y="0">ers </tspan><tspan class="cls-23" x="67.62" y="0">M</tspan><tspan x="77.14" y="0">ost</tspan></text><g class="cls-39"><path class="cls-45" d="M1112.44,87.37s-119.94-1.56-124.88-1c-10.17,1.27-49.66,2.65-59.51,1.61-10-1-20.33-.22-30.4-.54a124.84,124.84,0,0,0-16.52.54c-2.07.21-4.15.47-6.23.59-.52,0-1.09.28-1.56.06-1.16-.53-7.28-.91-7.28-.91" transform="translate(-819)"/></g><path class="cls-46" d="M887.71,46.83H894L896,55.32c.4,1.75.75,4,.75,4h.06s.44-2.47.84-4.22l1.91-8.24h5.77l1.87,8.24c.41,1.78.82,4.22.82,4.22h.09s.34-2.34.75-4l2-8.43h5.62l-5.65,20.79h-5.5l-2.22-9.55c-.4-1.72-.78-3.78-.78-3.78h-.06s-.4,2.09-.87,3.78l-2.59,9.55h-5.5Zm32.24,0h13v4.84h-7.18v3.12h6.33v4.5h-6.33v3.49h7.39v4.84H920Zm18.29,0h6V62.91h7.4v4.71H938.24Zm18,0h6V62.91h7.4v4.71H956.25Zm16,7.87h7.8v4.43h-7.8Zm12.32-7.87h8.09c3.84,0,7.49,1.12,7.49,5.18,0,2.91-1.43,4.34-3.68,4.9V57c2.4.34,4.49,1.87,4.49,4.93,0,4.21-3.59,5.71-8.39,5.71h-8Zm7.28,8.27c1.75,0,2.5-.62,2.5-2s-.78-1.88-2.38-1.88h-1.53V55.1Zm.44,8.09c1.59,0,2.68-.53,2.68-2s-.91-2-2.5-2h-2v4.06Zm12.73-16.36h13.05v4.84h-7.18v3.12h6.33v4.5h-6.33v3.49h7.4v4.84h-13.27Zm18.35,0h6V67.62h-6Zm11.89,0h6L1047,55a36.67,36.67,0,0,1,2.4,3.84h.07c0-.16-.13-2-.13-3.62V46.83h5.37V67.62h-5.43l-6.37-9a37.92,37.92,0,0,1-2.28-3.46h-.06c0,.18.09,1.59.09,3.15v9.27h-5.37ZM1059,57.23c0-5.69,4.34-10.77,12-10.77,3.4,0,5.5.71,7.06,1.78l-2.5,4.46a8.37,8.37,0,0,0-4.65-1.34c-3.66,0-5.59,2.09-5.59,5.68s1.5,6.18,5.09,6.18a6.59,6.59,0,0,0,2.5-.44V60h-3.35v-4.5h9V66.12a15.42,15.42,0,0,1-8.09,1.88C1062.89,68,1059,62.91,1059,57.23Z" transform="translate(-819)"/><text class="cls-47" transform="translate(261.28 67.62)"> </text><text class="cls-48" transform="translate(51.48 97.57)"><tspan class="cls-49">GA</tspan><tspan class="cls-50" x="46.6" y="0">P</tspan><tspan class="cls-51" x="66.98" y="0"> </tspan><tspan class="cls-52" x="73.07" y="0">AN</tspan><tspan class="cls-53" x="121.35" y="0">A</tspan><tspan class="cls-54" x="144.76" y="0">L</tspan><tspan class="cls-55" x="160.15" y="0">Y</tspan><tspan class="cls-56" x="180.34" y="0">SI</tspan><tspan x="209.83" y="0">S</tspan></text></g></svg>